<svg height="85.333328" viewBox="0 0 85.333328 85.333328" width="85.333328" xmlns="http://www.w3.org/2000/svg"><g transform="matrix(.13333333 0 0 -.13333333 0 85.333331)"><path d="m0 320c0-176.73 143.27-320 320-320s320 143.27 320 320-143.27 320-320 320-320-143.27-320-320" fill="#495672"/><path d="m499.688 149.688c-1.063 0-2.059.23-3.098.312h-313.492c-1.039-.082-2.035-.312-3.098-.312-22.266 0-40.312 18.046-40.312 40.312 0 1.063.23 2.059.312 3.098v1.894c1.07-.613 2.172-1.179 3.301-1.691 6.347-13.93 20.39-23.613 36.699-23.613 1.707 0 3.391.105 5.043.312h309.602c1.652-.207 3.335-.312 5.043-.312 22.242 0 40.277 18.011 40.312 40.246v.066-20c0-2.762-.281-5.457-.812-8.062-3.739-18.399-20-32.25-39.5-32.25" fill="#404a5f"/><path d="m180 180c-16.543 0-30 13.457-30 30v160c0 16.543 13.457 30 30 30h320c16.543 0 30-13.457 30-30v-160c0-16.543-13.457-30-30-30z" fill="#77caa9"/><path d="m500 410h-320c-22.094 0-40-17.906-40-40v-160c0-22.094 17.906-40 40-40h320c22.09 0 40 17.906 40 40v160c0 22.094-17.91 40-40 40m0-20c11.027 0 20-8.973 20-20v-160c0-11.027-8.973-20-20-20h-320c-11.027 0-20 8.973-20 20v160c0 11.027 8.973 20 20 20z" fill="#e1e3cc"/><path d="m400 290c0-33.137-26.863-60-60-60s-60 26.863-60 60 26.863 60 60 60 60-26.863 60-60" fill="#495672"/><path d="m459.375 369.688c0-22.262 18.051-40.313 40.313-40.313 22.261 0 40.312 18.051 40.312 40.313 0 22.261-18.051 40.312-40.312 40.312-22.262 0-40.313-18.051-40.313-40.312" fill="#e1e3cc"/><path d="m139.688 369.688c0-22.262 18.046-40.313 40.312-40.313s40.313 18.051 40.313 40.313c0 22.261-18.047 40.312-40.313 40.312s-40.312-18.051-40.312-40.312" fill="#e1e3cc"/><path d="m459.375 210c0-22.266 18.051-40.312 40.313-40.312 22.261 0 40.312 18.046 40.312 40.312s-18.051 40.313-40.312 40.313c-22.262 0-40.313-18.047-40.313-40.313" fill="#e1e3cc"/><path d="m139.688 210c0-22.266 18.046-40.312 40.312-40.312s40.313 18.046 40.313 40.312-18.047 40.313-40.313 40.313-40.312-18.047-40.312-40.313" fill="#e1e3cc"/><path d="m440.777 220h-221.714c-3.04 11.906-11.379 21.695-22.364 26.699-6.347 13.93-20.394 23.614-36.699 23.614v64.367c5.895-3.375 12.723-5.305 20-5.305 22.266 0 40.313 18.051 40.313 40.313 0 7.406-1.997 14.347-5.485 20.312h224.547c0-.105 0-.207 0-.312 0-16.305 9.684-30.352 23.609-36.7 5.051-11.078 14.965-19.468 27.016-22.441v-61.734c-3.312.882-6.727 1.5-10.312 1.5-22.266 0-40.313-18.047-40.313-40.313 0-3.473.574-6.785 1.402-10m-152.015 38.762c10.539-17.25 29.543-28.762 51.238-28.762 33.137 0 60 26.863 60 60 0 21.695-11.516 40.699-28.762 51.238-10.539 17.25-29.543 28.762-51.238 28.762-33.137 0-60-26.863-60-60 0-21.695 11.512-40.699 28.762-51.238" fill="#62a48d"/><path d="m150 268.91v73.852c2.871-3.199 6.246-5.934 10-8.082v-64.367c-3.473 0-6.785-.575-10-1.403m289.375 121.09h-224.547c-2.199 3.766-4.992 7.141-8.254 10h234.297c-.851-3.215-1.461-6.527-1.496-10" fill="#b7b7a7"/><path d="m340 230c-21.695 0-40.699 11.512-51.238 28.762 9.101-5.559 19.793-8.762 31.238-8.762 33.137 0 60 26.863 60 60 0 11.445-3.203 22.137-8.762 31.238 17.246-10.539 28.762-29.543 28.762-51.238 0-33.137-26.863-60-60-60" fill="#404a5f"/><path d="m490 330.547c-12.051 2.973-21.965 11.363-27.016 22.441 5.09-2.32 10.746-3.613 16.704-3.613 3.585 0 7 .617 10.312 1.496z" fill="#b7b7a7"/><path d="m180 329.375c-7.277 0-14.105 1.93-20 5.305-3.754 2.148-7.129 4.883-10 8.082v8.015c3.215-.828 6.527-1.402 10-1.402 22.266 0 40.313 18.051 40.313 40.313 0 3.585-.622 7-1.5 10.312h7.761c3.262-2.859 6.055-6.234 8.254-10 3.488-5.965 5.485-12.906 5.485-20.312 0-22.262-18.047-40.313-40.313-40.313" fill="#b7b7a7"/><path d="m219.063 220h-20.153c.828 3.215 1.403 6.527 1.403 10 0 5.957-1.293 11.613-3.614 16.699 10.985-5.004 19.324-14.793 22.364-26.699" fill="#b7b7a7"/><path d="m140 194.992c-12.137 6.946-20.312 20.024-20.312 35.008 0 1.063.23 2.059.312 3.098v153.492c-.082 1.039-.312 2.035-.312 3.098 0 19.503 13.847 35.761 32.25 39.5 2.601.531 5.3.812 8.062.812h320c16.223 0 30.188-9.656 36.465-23.535-5.024 2.269-10.598 3.535-16.465 3.535h-320c-.023 0-.043 0-.066 0-22.235-.035-40.246-18.07-40.246-40.312 0-1.708.105-3.391.312-5.043v-9.915c-.207-1.652-.312-3.335-.312-5.042 0-1.063.23-2.059.312-3.098v-131.547c-.207-1.652-.312-3.336-.312-5.043s.105-3.391.312-5.043z" fill="#404a5f"/><path d="m143.301 193.301c-1.129.512-2.231 1.078-3.301 1.691v9.965c.512-4.109 1.645-8.027 3.301-11.656m-3.301 21.742v131.547c-.082 1.039-.312 2.035-.312 3.098 0 1.707.105 3.39.312 5.042z" fill="#394051"/><path d="m464.68 190h-249.672c3.375 5.895 5.305 12.723 5.305 20 0 3.449-.434 6.805-1.25 10h221.714c-.828 3.215-1.402 6.527-1.402 10 0 22.266 18.047 40.313 40.313 40.313 3.585 0 7-.618 10.312-1.5v61.734c3.102-.766 6.348-1.172 9.688-1.172 7.406 0 14.347 1.996 20.312 5.484v-90.031c-5.965 3.488-12.906 5.485-20.312 5.485-22.262 0-40.313-18.047-40.313-40.313 0-7.277 1.93-14.105 5.305-20m-304.68 55.008v25.305c16.305 0 30.352-9.684 36.699-23.614-5.086 2.321-10.742 3.614-16.699 3.614-7.277 0-14.105-1.93-20-5.305m302.984 107.98c-13.925 6.348-23.609 20.395-23.609 36.7v.312h25.484c-3.488-5.965-5.484-12.906-5.484-20.312 0-5.958 1.293-11.614 3.609-16.7" fill="#62a48d"/><g fill="#b7b7a7"><path d="m464.68 190h-249.672zm-324.68 25.043v139.687 9.915c1.043-8.36 4.645-15.926 10-21.883v-73.852c3.215.828 6.527 1.403 10 1.403v-25.305c-10.754-6.156-18.398-17.121-20-29.965m380 29.785v90.031zm-55.141 145.172h-25.484c.035 3.473.645 6.785 1.496 10h-234.297c-7.094 6.227-16.394 10-26.574 10-.023 0-.043 0-.066 0h.066 320c5.867 0 11.441-1.266 16.465-3.535.019-.047.043-.094.062-.141-5.125 2.36-10.828 3.676-16.839 3.676-14.856 0-27.836-8.035-34.829-20"/><path d="m499.688 329.375c-3.34 0-6.586.406-9.688 1.172v20.324c-3.312-.879-6.727-1.496-10.312-1.496-5.958 0-11.614 1.293-16.704 3.613-2.316 5.086-3.609 10.742-3.609 16.7 0 7.406 1.996 14.347 5.484 20.312 6.993 11.965 19.973 20 34.829 20 6.011 0 11.714-1.316 16.839-3.676 2.231-4.984 3.473-10.511 3.473-16.324v-55.141c-5.965-3.488-12.906-5.484-20.312-5.484"/><path d="m150 342.762c-5.355 5.957-8.957 13.523-10 21.883-.207 1.652-.312 3.335-.312 5.043 0 22.242 18.011 40.277 40.246 40.312h.066c10.18 0 19.48-3.773 26.574-10h-7.761c.878-3.312 1.5-6.727 1.5-10.312 0-22.262-18.047-40.313-40.313-40.313-3.473 0-6.785.574-10 1.402z"/><path d="m479.688 189.688c-1.063 0-2.059.23-3.098.312h-11.91c-3.375 5.895-5.305 12.723-5.305 20 0 22.266 18.051 40.313 40.313 40.313 7.406 0 14.347-1.997 20.312-5.485v-14.828c0-2.762-.281-5.457-.812-8.062-3.739-18.399-20-32.25-39.5-32.25"/><path d="m160 189.688c-5.957 0-11.613 1.292-16.699 3.613-1.656 3.629-2.789 7.547-3.301 11.656-.207 1.652-.312 3.336-.312 5.043s.105 3.391.312 5.043c1.602 12.844 9.246 23.809 20 29.965 5.895 3.375 12.723 5.305 20 5.305 5.957 0 11.613-1.293 16.699-3.614 2.321-5.086 3.614-10.742 3.614-16.699 0-3.473-.575-6.785-1.403-10h20.153c.816-3.195 1.25-6.551 1.25-10 0-7.277-1.93-14.105-5.305-20h-51.91c-1.039-.082-2.035-.312-3.098-.312"/></g><path d="m288.762 258.762c-17.25 10.539-28.762 29.543-28.762 51.238 0 33.137 26.863 60 60 60 21.695 0 40.699-11.512 51.238-28.762-9.101 5.559-19.797 8.762-31.238 8.762-33.137 0-60-26.863-60-60 0-11.441 3.203-22.137 8.762-31.238" fill="#62a48d"/><path d="m320 250c-11.445 0-22.137 3.203-31.238 8.762-5.559 9.101-8.762 19.797-8.762 31.238 0 33.137 26.863 60 60 60 11.441 0 22.137-3.203 31.238-8.762 5.559-9.101 8.762-19.793 8.762-31.238 0-33.137-26.863-60-60-60" fill="#404a5f"/><path d="m140 220c-16.543 0-30 13.457-30 30v160c0 16.543 13.457 30 30 30h320c16.543 0 30-13.457 30-30v-160c0-16.543-13.457-30-30-30z" fill="#77caa9"/><path d="m460 450h-320c-22.094 0-40-17.906-40-40v-160c0-22.094 17.906-40 40-40h320c22.09 0 40 17.906 40 40v160c0 22.094-17.91 40-40 40zm0-20c11.027 0 20-8.973 20-20v-160c0-11.027-8.973-20-20-20h-320c-11.027 0-20 8.973-20 20v160c0 11.027 8.973 20 20 20z" fill="#e1e3cc"/><path d="m360 330c0-33.137-26.863-60-60-60s-60 26.863-60 60 26.863 60 60 60 60-26.863 60-60" fill="#495672"/><path d="m419.375 409.688c0-22.262 18.051-40.313 40.313-40.313 22.261 0 40.312 18.051 40.312 40.313 0 22.261-18.051 40.312-40.312 40.312-22.262 0-40.313-18.051-40.313-40.312" fill="#e1e3cc"/><path d="m99.6875 409.688c0-22.262 18.0465-40.313 40.3125-40.313s40.313 18.051 40.313 40.313c0 22.261-18.047 40.312-40.313 40.312s-40.3125-18.051-40.3125-40.312" fill="#e1e3cc"/><path d="m419.375 250c0-22.266 18.051-40.312 40.313-40.312 22.261 0 40.312 18.046 40.312 40.312s-18.051 40.313-40.312 40.313c-22.262 0-40.313-18.047-40.313-40.313" fill="#e1e3cc"/><path d="m99.6875 250c0-22.266 18.0465-40.312 40.3125-40.312s40.313 18.046 40.313 40.312-18.047 40.313-40.313 40.313-40.3125-18.047-40.3125-40.313" fill="#e1e3cc"/></g></svg>